<?xml version="1.0" standalone="no"?>
<!DOCTYPE svg PUBLIC "-//W3C//DTD SVG 20010904//EN"
 "http://www.w3.org/TR/2001/REC-SVG-20010904/DTD/svg10.dtd">
<svg version="1.0" xmlns="http://www.w3.org/2000/svg"
 width="512.000000pt" height="512.000000pt" viewBox="0 0 512.000000 512.000000"
 preserveAspectRatio="xMidYMid meet">

<g transform="translate(0.000000,512.000000) scale(0.100000,-0.100000)"
fill="#000000" stroke="none">
<path d="M2356 4509 c-361 -38 -715 -183 -1011 -414 -110 -86 -296 -281 -377
-395 -366 -517 -463 -1153 -267 -1755 84 -258 225 -496 421 -713 l57 -64 -95
-128 c-107 -145 -124 -180 -124 -247 0 -85 60 -158 149 -183 23 -6 316 -10
791 -10 815 0 901 4 1112 54 262 62 523 187 743 355 85 64 256 232 328 321
239 296 385 653 427 1042 51 477 -96 987 -399 1383 -62 82 -220 244 -311 320
-390 325 -931 488 -1444 434z m379 -299 c282 -33 562 -139 785 -297 122 -87
306 -272 392 -393 195 -275 308 -628 308 -960 0 -332 -113 -685 -308 -960 -86
-122 -270 -306 -392 -392 -226 -160 -503 -265 -785 -298 -89 -10 -1375 -15
-1375 -5 0 3 50 73 112 156 l111 151 -49 41 c-366 308 -572 682 -624 1132 -44
387 67 812 297 1135 87 122 272 306 393 392 327 232 748 342 1135 298z"/>
<path d="M1756 2755 c-113 -40 -168 -177 -113 -285 99 -197 391 -130 391 90 0
147 -139 245 -278 195z"/>
<path d="M2490 2757 c-52 -17 -114 -84 -129 -140 -43 -152 97 -298 247 -259
159 43 213 232 98 347 -60 59 -135 78 -216 52z"/>
<path d="M3225 2758 c-85 -30 -139 -107 -139 -198 0 -220 292 -287 392 -90 81
162 -82 348 -253 288z"/>
</g>
</svg>
